<?xml version="1.0" encoding="UTF-8" standalone="no"?>
<!-- Created with Inkscape (http://www.inkscape.org/) -->

<svg
   xmlns:dc="http://purl.org/dc/elements/1.1/"
   xmlns:cc="http://creativecommons.org/ns#"
   xmlns:rdf="http://www.w3.org/1999/02/22-rdf-syntax-ns#"
   xmlns:svg="http://www.w3.org/2000/svg"
   xmlns="http://www.w3.org/2000/svg"
   xmlns:sodipodi="http://sodipodi.sourceforge.net/DTD/sodipodi-0.dtd"
   xmlns:inkscape="http://www.inkscape.org/namespaces/inkscape"
   width="148mm"
   height="30mm"
   viewBox="0 0 524.40946 106.29921"
   id="svg2"
   version="1.1"
   inkscape:version="0.91 r13725"
   sodipodi:docname="2016-08-20-ssh3.svg">
  <defs
     id="defs4">
    <marker
       inkscape:stockid="Arrow1Lend"
       orient="auto"
       refY="0"
       refX="0"
       id="marker17426"
       style="overflow:visible"
       inkscape:isstock="true">
      <path
         inkscape:connector-curvature="0"
         id="path17428"
         d="M 0,0 5,-5 -12.5,0 5,5 0,0 Z"
         style="fill:#ff9a00;fill-opacity:1;fill-rule:evenodd;stroke:#ff9a00;stroke-width:1pt;stroke-opacity:1"
         transform="matrix(-0.8,0,0,-0.8,-10,0)" />
    </marker>
    <marker
       inkscape:isstock="true"
       style="overflow:visible"
       id="marker16826"
       refX="0"
       refY="0"
       orient="auto"
       inkscape:stockid="Arrow1Lend"
       inkscape:collect="always">
      <path
         transform="matrix(-0.8,0,0,-0.8,-10,0)"
         style="fill:#ff9a00;fill-opacity:1;fill-rule:evenodd;stroke:#ff9a00;stroke-width:1pt;stroke-opacity:1"
         d="M 0,0 5,-5 -12.5,0 5,5 0,0 Z"
         id="path16828"
         inkscape:connector-curvature="0" />
    </marker>
    <marker
       inkscape:isstock="true"
       style="overflow:visible"
       id="marker16756"
       refX="0"
       refY="0"
       orient="auto"
       inkscape:stockid="Arrow1Lend">
      <path
         transform="matrix(-0.8,0,0,-0.8,-10,0)"
         style="fill:#ff9a00;fill-opacity:1;fill-rule:evenodd;stroke:#ff9a00;stroke-width:1pt;stroke-opacity:1"
         d="M 0,0 5,-5 -12.5,0 5,5 0,0 Z"
         id="path16758"
         inkscape:connector-curvature="0" />
    </marker>
    <marker
       inkscape:stockid="Arrow1Lend"
       orient="auto"
       refY="0"
       refX="0"
       id="marker16432"
       style="overflow:visible"
       inkscape:isstock="true"
       inkscape:collect="always">
      <path
         inkscape:connector-curvature="0"
         id="path16434"
         d="M 0,0 5,-5 -12.5,0 5,5 0,0 Z"
         style="fill:#ff9a00;fill-opacity:1;fill-rule:evenodd;stroke:#ff9a00;stroke-width:1pt;stroke-opacity:1"
         transform="matrix(-0.8,0,0,-0.8,-10,0)" />
    </marker>
    <marker
       inkscape:isstock="true"
       style="overflow:visible"
       id="marker16350"
       refX="0"
       refY="0"
       orient="auto"
       inkscape:stockid="Arrow1Lend">
      <path
         transform="matrix(-0.8,0,0,-0.8,-10,0)"
         style="fill:#000000;fill-opacity:1;fill-rule:evenodd;stroke:#000000;stroke-width:1pt;stroke-opacity:1"
         d="M 0,0 5,-5 -12.5,0 5,5 0,0 Z"
         id="path16352"
         inkscape:connector-curvature="0" />
    </marker>
    <marker
       inkscape:isstock="true"
       style="overflow:visible"
       id="marker16280"
       refX="0"
       refY="0"
       orient="auto"
       inkscape:stockid="Arrow1Lend">
      <path
         transform="matrix(-0.8,0,0,-0.8,-10,0)"
         style="fill:#000000;fill-opacity:1;fill-rule:evenodd;stroke:#000000;stroke-width:1pt;stroke-opacity:1"
         d="M 0,0 5,-5 -12.5,0 5,5 0,0 Z"
         id="path16282"
         inkscape:connector-curvature="0" />
    </marker>
    <marker
       inkscape:isstock="true"
       style="overflow:visible"
       id="marker16216"
       refX="0"
       refY="0"
       orient="auto"
       inkscape:stockid="Arrow1Lend">
      <path
         transform="matrix(-0.8,0,0,-0.8,-10,0)"
         style="fill:#000000;fill-opacity:1;fill-rule:evenodd;stroke:#000000;stroke-width:1pt;stroke-opacity:1"
         d="M 0,0 5,-5 -12.5,0 5,5 0,0 Z"
         id="path16218"
         inkscape:connector-curvature="0" />
    </marker>
    <marker
       inkscape:stockid="Arrow1Lend"
       orient="auto"
       refY="0"
       refX="0"
       id="marker14032"
       style="overflow:visible"
       inkscape:isstock="true"
       inkscape:collect="always">
      <path
         inkscape:connector-curvature="0"
         id="path14034"
         d="M 0,0 5,-5 -12.5,0 5,5 0,0 Z"
         style="fill:#ff0000;fill-opacity:1;fill-rule:evenodd;stroke:#ff0000;stroke-width:1pt;stroke-opacity:1"
         transform="matrix(-0.8,0,0,-0.8,-10,0)" />
    </marker>
    <marker
       inkscape:stockid="Arrow1Lend"
       orient="auto"
       refY="0"
       refX="0"
       id="marker13998"
       style="overflow:visible"
       inkscape:isstock="true"
       inkscape:collect="always">
      <path
         inkscape:connector-curvature="0"
         id="path14000"
         d="M 0,0 5,-5 -12.5,0 5,5 0,0 Z"
         style="fill:#ff0000;fill-opacity:1;fill-rule:evenodd;stroke:#ff0000;stroke-width:1pt;stroke-opacity:1"
         transform="matrix(-0.8,0,0,-0.8,-10,0)" />
    </marker>
    <marker
       inkscape:isstock="true"
       style="overflow:visible"
       id="marker7002"
       refX="0"
       refY="0"
       orient="auto"
       inkscape:stockid="Arrow1Lend"
       inkscape:collect="always">
      <path
         transform="matrix(-0.8,0,0,-0.8,-10,0)"
         style="fill:#ff0000;fill-opacity:1;fill-rule:evenodd;stroke:#ff0000;stroke-width:1pt;stroke-opacity:1"
         d="M 0,0 5,-5 -12.5,0 5,5 0,0 Z"
         id="path7004"
         inkscape:connector-curvature="0" />
    </marker>
    <marker
       inkscape:isstock="true"
       style="overflow:visible"
       id="marker6932"
       refX="0"
       refY="0"
       orient="auto"
       inkscape:stockid="Arrow1Lend"
       inkscape:collect="always">
      <path
         transform="matrix(-0.8,0,0,-0.8,-10,0)"
         style="fill:#ff0000;fill-opacity:1;fill-rule:evenodd;stroke:#ff0000;stroke-width:1pt;stroke-opacity:1"
         d="M 0,0 5,-5 -12.5,0 5,5 0,0 Z"
         id="path6934"
         inkscape:connector-curvature="0" />
    </marker>
    <marker
       inkscape:stockid="Arrow1Send"
       orient="auto"
       refY="0"
       refX="0"
       id="Arrow1Send"
       style="overflow:visible"
       inkscape:isstock="true">
      <path
         id="path4207"
         d="M 0,0 5,-5 -12.5,0 5,5 0,0 Z"
         style="fill:#ff9b00;fill-opacity:1;fill-rule:evenodd;stroke:#ff9b00;stroke-width:1pt;stroke-opacity:1"
         transform="matrix(-0.2,0,0,-0.2,-1.2,0)"
         inkscape:connector-curvature="0" />
    </marker>
  </defs>
  <sodipodi:namedview
     id="base"
     pagecolor="#ffffff"
     bordercolor="#666666"
     borderopacity="1.0"
     inkscape:pageopacity="0.0"
     inkscape:pageshadow="2"
     inkscape:zoom="0.7"
     inkscape:cx="35.357754"
     inkscape:cy="-144.66069"
     inkscape:document-units="px"
     inkscape:current-layer="layer1"
     showgrid="false"
     showguides="true"
     inkscape:guide-bbox="true"
     inkscape:snap-object-midpoints="true"
     inkscape:snap-text-baseline="true"
     inkscape:object-paths="true"
     inkscape:window-width="1016"
     inkscape:window-height="716"
     inkscape:window-x="649"
     inkscape:window-y="225"
     inkscape:window-maximized="0"
     units="mm"
     height="40mm"
     inkscape:snap-bbox="true"
     inkscape:bbox-paths="true"
     inkscape:bbox-nodes="true" />
  <metadata
     id="metadata7">
    <rdf:RDF>
      <cc:Work
         rdf:about="">
        <dc:format>image/svg+xml</dc:format>
        <dc:type
           rdf:resource="http://purl.org/dc/dcmitype/StillImage" />
        <dc:title></dc:title>
      </cc:Work>
    </rdf:RDF>
  </metadata>
  <g
     inkscape:label="Layer 1"
     inkscape:groupmode="layer"
     id="layer1"
     transform="translate(0,-946.0632)">
    <g
       style="font-style:normal;font-weight:normal;font-size:40px;line-height:125%;font-family:sans-serif;letter-spacing:0px;word-spacing:0px;fill:#000000;fill-opacity:1;stroke:none;stroke-width:1px;stroke-linecap:butt;stroke-linejoin:miter;stroke-opacity:1"
       id="text3352"
       transform="translate(-2.352067,773.76555)">
      <path
         d="m 71.638931,236.97455 4.023438,4.96094 0,0.66406 q 0,0.68359 -0.214844,1.15234 -0.214844,0.44922 -0.839844,0.48828 l -35.9375,0 q -0.722656,0 -1.230468,-0.23437 -0.488282,-0.23438 -0.488282,-0.91797 l 0,-1.15234 4.082032,-4.96094 -0.05859,0 0,-18.39844 q 0,-0.42969 0.3125,-0.74219 0.332031,-0.3125 0.800781,-0.3125 l 28.398438,0 q 0.429687,0 0.78125,0.3125 0.371093,0.3125 0.371093,0.74219 l 0,18.39844 z m -23.496093,1.25 -1.835938,3.32031 20.039063,0 -1.71875,-3.32031 -16.484375,0 z m -5.234375,-18.73047 0,16.19141 26.855468,0 0,-16.19141 -26.855468,0 z"
         id="path3357"
         inkscape:connector-curvature="0" />
    </g>
    <text
       xml:space="preserve"
       style="font-style:normal;font-weight:normal;font-size:40px;line-height:125%;font-family:sans-serif;letter-spacing:0px;word-spacing:0px;fill:#000000;fill-opacity:1;stroke:none;stroke-width:1px;stroke-linecap:butt;stroke-linejoin:miter;stroke-opacity:1"
       x="72.638916"
       y="1000.7841"
       id="text3359"
       sodipodi:linespacing="125%"><tspan
         sodipodi:role="line"
         id="tspan3361"
         x="72.638916"
         y="1000.7841"
         style="font-size:12.5px">ssh1</tspan></text>
    <text
       sodipodi:linespacing="125%"
       id="text3365"
       y="1000.7841"
       x="279.74121"
       style="font-style:normal;font-weight:normal;font-size:40px;line-height:125%;font-family:sans-serif;letter-spacing:0px;word-spacing:0px;fill:#000000;fill-opacity:1;stroke:none;stroke-width:1px;stroke-linecap:butt;stroke-linejoin:miter;stroke-opacity:1"
       xml:space="preserve"><tspan
         style="font-size:12.5px"
         y="1000.7841"
         x="279.74121"
         id="tspan3367"
         sodipodi:role="line">ssh2</tspan></text>
    <g
       id="g3369"
       style="font-style:normal;font-weight:normal;font-size:40px;line-height:125%;font-family:sans-serif;letter-spacing:0px;word-spacing:0px;fill:#000000;fill-opacity:1;stroke:none;stroke-width:1px;stroke-linecap:butt;stroke-linejoin:miter;stroke-opacity:1"
       transform="translate(204.75023,773.76555)">
      <path
         id="path3371"
         d="m 71.638931,236.97455 4.023438,4.96094 0,0.66406 q 0,0.68359 -0.214844,1.15234 -0.214844,0.44922 -0.839844,0.48828 l -35.9375,0 q -0.722656,0 -1.230468,-0.23437 -0.488282,-0.23438 -0.488282,-0.91797 l 0,-1.15234 4.082032,-4.96094 -0.05859,0 0,-18.39844 q 0,-0.42969 0.3125,-0.74219 0.332031,-0.3125 0.800781,-0.3125 l 28.398438,0 q 0.429687,0 0.78125,0.3125 0.371093,0.3125 0.371093,0.74219 l 0,18.39844 z m -23.496093,1.25 -1.835938,3.32031 20.039063,0 -1.71875,-3.32031 -16.484375,0 z m -5.234375,-18.73047 0,16.19141 26.855468,0 0,-16.19141 -26.855468,0 z"
         inkscape:connector-curvature="0" />
    </g>
    <path
       style="fill:none;fill-rule:evenodd;stroke:#ff9a00;stroke-width:1.00000013;stroke-linecap:butt;stroke-linejoin:miter;stroke-opacity:1;stroke-miterlimit:4;stroke-dasharray:none;marker-end:url(#marker16756)"
       d="m 459.89747,994.8624 39.38825,0"
       id="path16746"
       inkscape:connector-curvature="0" />
    <path
       style="fill:none;fill-rule:evenodd;stroke:#ff9a00;stroke-width:1.00000012;stroke-linecap:butt;stroke-linejoin:miter;stroke-miterlimit:4;stroke-dasharray:none;stroke-opacity:1;marker-end:url(#marker16826)"
       d="m 460.31382,995.21954 37.20328,21.04196"
       id="path16748"
       inkscape:connector-curvature="0"
       sodipodi:nodetypes="cc" />
    <path
       sodipodi:nodetypes="cc"
       inkscape:connector-curvature="0"
       id="path17424"
       d="M 460.31382,994.34912 497.5171,973.30715"
       style="fill:none;fill-rule:evenodd;stroke:#ff9a00;stroke-width:1.00000012;stroke-linecap:butt;stroke-linejoin:miter;stroke-miterlimit:4;stroke-dasharray:none;stroke-opacity:1;marker-end:url(#marker17426)" />
    <g
       transform="translate(388.25859,773.76555)"
       style="font-style:normal;font-weight:normal;font-size:40px;line-height:125%;font-family:sans-serif;letter-spacing:0px;word-spacing:0px;fill:#000000;fill-opacity:1;stroke:none;stroke-width:1px;stroke-linecap:butt;stroke-linejoin:miter;stroke-opacity:1"
       id="g5844">
      <path
         inkscape:connector-curvature="0"
         d="m 71.638931,236.97455 4.023438,4.96094 0,0.66406 q 0,0.68359 -0.214844,1.15234 -0.214844,0.44922 -0.839844,0.48828 l -35.9375,0 q -0.722656,0 -1.230468,-0.23437 -0.488282,-0.23438 -0.488282,-0.91797 l 0,-1.15234 4.082032,-4.96094 -0.05859,0 0,-18.39844 q 0,-0.42969 0.3125,-0.74219 0.332031,-0.3125 0.800781,-0.3125 l 28.398438,0 q 0.429687,0 0.78125,0.3125 0.371093,0.3125 0.371093,0.74219 l 0,18.39844 z m -23.496093,1.25 -1.835938,3.32031 20.039063,0 -1.71875,-3.32031 -16.484375,0 z m -5.234375,-18.73047 0,16.19141 26.855468,0 0,-16.19141 -26.855468,0 z"
         id="path5846" />
    </g>
    <text
       sodipodi:linespacing="125%"
       id="text6402"
       y="981.44257"
       x="220.161"
       style="font-style:normal;font-weight:normal;font-size:40px;line-height:125%;font-family:sans-serif;letter-spacing:0px;word-spacing:0px;fill:#000000;fill-opacity:1;stroke:none;stroke-width:1px;stroke-linecap:butt;stroke-linejoin:miter;stroke-opacity:1"
       xml:space="preserve"><tspan
         style="font-weight:bold;font-size:12.5px"
         y="981.44257"
         x="220.161"
         id="tspan6404"
         sodipodi:role="line">bar.siuda.net</tspan></text>
    <text
       xml:space="preserve"
       style="font-style:normal;font-weight:normal;font-size:40px;line-height:125%;font-family:sans-serif;letter-spacing:0px;word-spacing:0px;fill:#000000;fill-opacity:1;stroke:none;stroke-width:1px;stroke-linecap:butt;stroke-linejoin:miter;stroke-opacity:1"
       x="398.66934"
       y="981.44257"
       id="text6406"
       sodipodi:linespacing="125%"><tspan
         sodipodi:role="line"
         id="tspan6408"
         x="398.66934"
         y="981.44257"
         style="font-weight:bold;font-size:12.5px">foo.siuda.net</tspan></text>
    <text
       xml:space="preserve"
       style="font-style:normal;font-weight:normal;font-size:40px;line-height:125%;font-family:sans-serif;letter-spacing:0px;word-spacing:0px;fill:#000000;fill-opacity:1;stroke:none;stroke-width:1px;stroke-linecap:butt;stroke-linejoin:miter;stroke-opacity:1"
       x="40.097919"
       y="981.44257"
       id="text6410"
       sodipodi:linespacing="125%"><tspan
         sodipodi:role="line"
         id="tspan6412"
         x="40.097919"
         y="981.44257"
         style="font-weight:bold;font-size:12.5px">you</tspan></text>
    <path
       style="fill:none;fill-rule:evenodd;stroke:#ff0000;stroke-width:1px;stroke-linecap:butt;stroke-linejoin:miter;stroke-opacity:1;marker-start:url(#marker6932);marker-end:url(#marker7002)"
       d="m 115.94192,995.86992 124.84772,-0.6066"
       id="path6918"
       inkscape:connector-curvature="0"
       sodipodi:nodetypes="cc" />
    <path
       sodipodi:nodetypes="cc"
       inkscape:connector-curvature="0"
       id="path13996"
       d="m 323.57672,995.8262 100.35152,-0.6066"
       style="fill:none;fill-rule:evenodd;stroke:#ff0000;stroke-width:1px;stroke-linecap:butt;stroke-linejoin:miter;stroke-opacity:1;marker-start:url(#marker13998);marker-end:url(#marker14032)" />
    <path
       style="fill:none;fill-rule:evenodd;stroke:#ff8c00;stroke-width:1.00000012;stroke-linecap:butt;stroke-linejoin:miter;stroke-miterlimit:4;stroke-dasharray:none;stroke-opacity:1;marker-end:url(#marker16432)"
       d="m 240.78961,995.26331 0,32.86049 79.21039,0 0,-31.78567"
       id="path16208"
       inkscape:connector-curvature="0" />
    <text
       xml:space="preserve"
       style="font-style:normal;font-weight:normal;font-size:40px;line-height:125%;font-family:sans-serif;letter-spacing:0px;word-spacing:0px;fill:#ff8900;fill-opacity:1;stroke:none;stroke-width:1px;stroke-linecap:butt;stroke-linejoin:miter;stroke-opacity:1"
       x="245.14348"
       y="1038.1208"
       id="text16742"
       sodipodi:linespacing="125%"><tspan
         sodipodi:role="line"
         id="tspan16744"
         x="245.14348"
         y="1038.1208"
         style="font-size:12.5px;fill:#ff8900;fill-opacity:1">io forward</tspan></text>
    <text
       sodipodi:linespacing="125%"
       id="text17658"
       y="1038.1208"
       x="462.32632"
       style="font-style:normal;font-weight:normal;font-size:40px;line-height:125%;font-family:sans-serif;letter-spacing:0px;word-spacing:0px;fill:#ff8900;fill-opacity:1;stroke:none;stroke-width:1px;stroke-linecap:butt;stroke-linejoin:miter;stroke-opacity:1"
       xml:space="preserve"><tspan
         style="font-size:12.5px;fill:#ff8900;fill-opacity:1"
         y="1038.1208"
         x="462.32632"
         id="tspan17660"
         sodipodi:role="line">proxy</tspan></text>
  </g>
</svg>
